<svg width="9" height="8" viewBox="0 0 9 8" fill="none" xmlns="http://www.w3.org/2000/svg">
<path fill-rule="evenodd" clip-rule="evenodd" d="M4.49989 0.25C4.53857 0.250021 4.57648 0.260809 4.60937 0.281157C4.64227 0.301504 4.66885 0.330608 4.68614 0.365208L8.22781 7.44854C8.24367 7.4803 8.25116 7.51558 8.24957 7.55104C8.24797 7.5865 8.23734 7.62097 8.21868 7.65117C8.20002 7.68137 8.17396 7.7063 8.14296 7.7236C8.11196 7.74089 8.07705 7.74998 8.04156 7.75H0.958222C0.922724 7.74998 0.887819 7.74089 0.85682 7.7236C0.825821 7.7063 0.799756 7.68137 0.781098 7.65117C0.76244 7.62097 0.751808 7.5865 0.750211 7.55104C0.748614 7.51558 0.756104 7.4803 0.771972 7.44854L4.31364 0.365208C4.33093 0.330608 4.35751 0.301504 4.3904 0.281157C4.4233 0.260809 4.46121 0.250021 4.49989 0.25ZM1.29531 7.33333H7.70447L4.49989 0.924167L1.29531 7.33333Z" fill="#EC0101"/>
<path d="M4.08398 3.16667C4.08398 3.05616 4.12788 2.95018 4.20602 2.87204C4.28416 2.7939 4.39014 2.75 4.50065 2.75C4.61116 2.75 4.71714 2.7939 4.79528 2.87204C4.87342 2.95018 4.91732 3.05616 4.91732 3.16667V5.25C4.91732 5.36051 4.87342 5.46649 4.79528 5.54463C4.71714 5.62277 4.61116 5.66667 4.50065 5.66667C4.39014 5.66667 4.28416 5.62277 4.20602 5.54463C4.12788 5.46649 4.08398 5.36051 4.08398 5.25V3.16667ZM4.08398 6.49292C4.08398 6.26667 4.26732 6.08333 4.49357 6.08333H4.50773C4.61639 6.08333 4.7206 6.1265 4.79743 6.20333C4.87426 6.28016 4.91742 6.38436 4.91742 6.49302C4.91742 6.60168 4.87426 6.70588 4.79743 6.78271C4.7206 6.85954 4.61639 6.90271 4.50773 6.90271H4.49378C4.43995 6.90274 4.38665 6.89215 4.33692 6.87157C4.28719 6.85099 4.24201 6.8208 4.20395 6.78274C4.16589 6.74469 4.13571 6.6995 4.11512 6.64977C4.09454 6.60004 4.08396 6.54674 4.08398 6.49292Z" fill="#EC0101"/>
</svg>
