<svg width="40" height="40" viewBox="0 0 40 40" fill="none" xmlns="http://www.w3.org/2000/svg">
<path d="M5.25488 12.2422L10.7307 16.258C12.2124 12.5897 15.8007 9.99967 19.9999 9.99967C22.5491 9.99967 24.8682 10.9613 26.6341 12.5322L31.3482 7.81801C28.3716 5.04384 24.3899 3.33301 19.9999 3.33301C13.5982 3.33301 8.04655 6.94717 5.25488 12.2422Z" fill="#FF3D00"/>
<g clip-path="url(#clip0_1322_20284)">
<path d="M36.99 3H3.00996C3.00446 3 3 3.00446 3 3.00996V36.99C3 36.9955 3.00446 37 3.00996 37H36.99C36.9955 37 37 36.9955 37 36.99V3.00996C37 3.00446 36.9955 3 36.99 3Z" fill="#1877F2"/>
<path d="M26.6141 24.9141L27.3711 20H22.6562V16.8125C22.6562 15.4711 23.3137 14.1562 25.4254 14.1562H27.5703V9.97266C27.5703 9.97266 25.6246 9.64062 23.7652 9.64062C19.8805 9.64062 17.3438 11.9914 17.3438 16.2547V20H13.0273V24.9141H17.3438V37H22.6562V24.9141H26.6141Z" fill="white"/>
</g>
<defs>
<clipPath id="clip0_1322_20284">
<rect x="3" y="3" width="34" height="34" rx="9" fill="white"/>
</clipPath>
</defs>
</svg>
