<svg width="33" height="32" viewBox="0 0 33 32" fill="none" xmlns="http://www.w3.org/2000/svg">
<g clip-path="url(#clip0_1595_17562)">
<path fill-rule="evenodd" clip-rule="evenodd" d="M26.9766 31.2379H6.02423C3.1307 31.2379 0.786133 28.9644 0.786133 26.1585V5.84108C0.786133 3.03626 3.1307 0.761719 6.02423 0.761719H26.9766C29.8691 0.761719 32.2147 3.03626 32.2147 5.84108V26.1585C32.2147 28.9644 29.8691 31.2379 26.9766 31.2379Z" stroke="#B9BED2" stroke-width="2"/>
<path d="M17.9305 15.4218H17.4305V15.9218V24.7109H14.6056V15.9614V15.4614H14.1056H12.6162V13.3112H14.1056H14.6056V12.8112V10.3324C14.6056 9.25956 14.8988 8.53336 15.4333 8.06348C15.9806 7.5822 16.8712 7.28906 18.2354 7.28906H20.3837V9.51751H18.8136C18.4067 9.51751 17.9819 9.59349 17.7052 9.94434C17.4578 10.2581 17.4305 10.6792 17.4305 11.0405V12.8112V13.3112H17.9305H20.336L20.1434 15.4218H17.9305Z" fill="#B9BED2" stroke="#B9BED2"/>
</g>
<defs>
<clipPath id="clip0_1595_17562">
<rect width="33" height="32" fill="white"/>
</clipPath>
</defs>
</svg>
