<svg width="40" height="40" viewBox="0 0 40 40" fill="none" xmlns="http://www.w3.org/2000/svg">
<path d="M36.3422 16.7355H34.9997V16.6663H19.9997V23.333H29.4188C28.0447 27.2138 24.3522 29.9997 19.9997 29.9997C14.4772 29.9997 9.99967 25.5222 9.99967 19.9997C9.99967 14.4772 14.4772 9.99967 19.9997 9.99967C22.5488 9.99967 24.868 10.9613 26.6338 12.5322L31.348 7.81801C28.3713 5.04384 24.3897 3.33301 19.9997 3.33301C10.7955 3.33301 3.33301 10.7955 3.33301 19.9997C3.33301 29.2038 10.7955 36.6663 19.9997 36.6663C29.2038 36.6663 36.6663 29.2038 36.6663 19.9997C36.6663 18.8822 36.5513 17.7913 36.3422 16.7355Z" fill="#FFC107"/>
<path d="M5.25488 12.2422L10.7307 16.258C12.2124 12.5897 15.8007 9.99967 19.9999 9.99967C22.5491 9.99967 24.8682 10.9613 26.6341 12.5322L31.3482 7.81801C28.3716 5.04384 24.3899 3.33301 19.9999 3.33301C13.5982 3.33301 8.04655 6.94717 5.25488 12.2422Z" fill="#FF3D00"/>
<path d="M19.9996 36.6663C24.3046 36.6663 28.2163 35.0188 31.1738 32.3396L26.0154 27.9746C24.3421 29.2421 22.2621 29.9996 19.9996 29.9996C15.6646 29.9996 11.9838 27.2354 10.5971 23.3779L5.16211 27.5654C7.92044 32.9629 13.5221 36.6663 19.9996 36.6663Z" fill="#4CAF50"/>
<path d="M36.3425 16.7362H35V16.667H20V23.3337H29.4192C28.7592 25.1978 27.56 26.8053 26.0133 27.9762C26.0142 27.9753 26.015 27.9753 26.0158 27.9745L31.1742 32.3395C30.8092 32.6712 36.6667 28.3337 36.6667 20.0003C36.6667 18.8828 36.5517 17.792 36.3425 16.7362Z" fill="#1976D2"/>
</svg>
