<svg width="32" height="32" viewBox="0 0 32 32" fill="none" xmlns="http://www.w3.org/2000/svg">
<g clip-path="url(#clip0_1595_17544)">
<path fill-rule="evenodd" clip-rule="evenodd" d="M26.1585 31.2379H5.84108C3.03524 31.2379 0.761719 28.9634 0.761719 26.1585V5.84108C0.761719 3.03524 3.03524 0.761719 5.84108 0.761719H26.1585C28.9634 0.761719 31.2379 3.03524 31.2379 5.84108V26.1585C31.2379 28.9634 28.9634 31.2379 26.1585 31.2379Z" stroke="#B9BED2" stroke-width="2"/>
<path d="M9.40101 9.39999L9.40062 9.40038C8.98827 9.81182 8.73957 10.2178 8.54951 10.7075L9.40101 9.39999ZM9.40101 9.39999C9.81261 8.98838 10.2188 8.73959 10.7085 8.5495M9.40101 9.39999L10.7085 8.5495M12.5775 23.8043L12.578 23.8044C13.4577 23.8445 13.7333 23.8546 16.0001 23.8546C18.2658 23.8546 18.5425 23.8445 19.4221 23.8044L19.4226 23.8043C20.2633 23.7669 20.8165 23.6341 21.2917 23.4497C21.7812 23.2596 22.1873 23.0109 22.5988 22.5996C23.0111 22.1863 23.2607 21.7799 23.4495 21.2921L23.4498 21.2912C23.635 20.8156 23.7669 20.2635 23.8054 19.4222C23.8054 19.4221 23.8054 19.4221 23.8054 19.4221L24.3048 19.4449C24.3455 18.553 24.3546 18.2685 24.3546 16.0001L12.5775 23.8043ZM12.5775 23.8043C11.7359 23.7669 11.1837 23.6341 10.7085 23.4497C10.2188 23.2596 9.81261 23.0108 9.40101 22.5992C8.98833 22.1865 8.73952 21.7802 8.54945 21.2915M12.5775 23.8043L8.54945 21.2915M9.02058 21.109L9.01988 21.1072C8.88722 20.7637 8.73948 20.2688 8.69935 19.3989L8.69932 19.3983C8.6592 18.5063 8.65006 18.2324 8.65006 16.0001C8.65006 13.7657 8.6592 13.4939 8.69932 12.6009L8.69935 12.6003C8.73948 11.7303 8.88722 11.2355 9.01989 10.892L9.02058 10.8902L9.02058 10.8902C9.19761 10.437 9.41618 10.0999 9.75853 9.75752C10.1005 9.41552 10.4368 9.1965 10.8912 9.02017C11.2359 8.88592 11.7324 8.73839 12.6006 8.69934C13.4929 8.65817 13.7675 8.65006 16.0001 8.65006C18.2327 8.65006 18.5062 8.65817 19.3986 8.69934M9.02058 21.109L12.6233 9.19882C13.5041 9.15818 13.7692 9.15006 16.0001 9.15006C18.2309 9.15006 18.4951 9.15818 19.3758 9.19882C20.1906 9.23539 20.6335 9.37152 20.9281 9.48631C21.3172 9.63767 21.5955 9.8185 21.8881 10.1111C22.1807 10.4036 22.3615 10.682 22.5128 11.0721M9.02058 21.109C9.19761 21.5622 9.41618 21.8993 9.75853 22.2416C10.1004 22.5836 10.4366 22.8025 10.8909 22.9789C11.2356 23.1132 11.7322 23.2608 12.6009 23.2998M9.02058 21.109L22.5128 20.9271C22.6276 20.6325 22.7638 20.1906 22.8003 19.3758C22.841 18.4951 22.8501 18.2299 22.8501 16.0001C22.8501 13.7682 22.841 13.5051 22.8003 12.6233M19.3986 8.69934C19.3987 8.69934 19.3988 8.69934 19.3989 8.69935L19.3759 9.19843L19.3983 8.69932C19.3984 8.69933 19.3985 8.69933 19.3986 8.69934ZM19.3986 8.69934C20.2683 8.73841 20.7649 8.88609 21.1096 9.02043M21.1096 9.02043C21.1095 9.02039 21.1095 9.02036 21.1094 9.02033L20.9281 9.48627L21.1096 9.02043ZM21.1096 9.02043C21.5622 9.19654 21.8994 9.4153 22.2416 9.75752C22.584 10.0999 22.8028 10.4373 22.979 10.8912M22.979 10.8912C22.9789 10.891 22.9788 10.8908 22.9787 10.8906L22.5128 11.0721M22.979 10.8912L22.5128 11.0721M22.979 10.8912C23.1132 11.2358 23.2607 11.7312 23.2998 12.6003M22.5128 11.0721C22.6276 11.3667 22.7638 11.8086 22.8003 12.6233M22.8003 12.6233L23.2998 12.6003M22.8003 12.6233L23.2998 12.6009C23.2998 12.6007 23.2998 12.6005 23.2998 12.6003M23.2998 12.6003C23.341 13.4936 23.3501 13.7658 23.3501 16.0001C23.3501 18.2318 23.341 18.5064 23.2998 19.3983L22.8007 19.3758L23.2998 19.3989C23.2998 19.3987 23.2998 19.3985 23.2998 19.3983C23.2608 20.2678 23.1132 20.7633 22.979 21.1079C22.8028 21.5619 22.584 21.8993 22.2416 22.2416C21.8994 22.5839 21.5621 22.8027 21.1094 22.9788C20.7646 23.1132 20.268 23.2608 19.3983 23.2998C18.5063 23.34 18.2334 23.3491 16.0001 23.3491C13.7668 23.3491 13.4928 23.34 12.6009 23.2998M12.6009 23.2998L12.6233 22.8003L12.6009 23.2998ZM10.7085 8.5495C11.1838 8.36502 11.7361 8.23224 12.578 8.19379L10.7085 8.5495ZM8.54945 21.2915C8.36509 20.8155 8.23326 20.2632 8.19481 19.4222L8.54945 21.2915ZM16.0001 8.14453C18.2663 8.14453 18.5427 8.15368 19.4221 8.19379L12.5781 8.19379C13.4574 8.15368 13.7329 8.14453 16.0001 8.14453ZM8.19481 12.577C8.23328 11.7355 8.36522 11.1823 8.5495 10.7075L8.19481 12.577ZM8.14453 16.0001C8.14453 13.7334 8.15468 13.4577 8.1948 12.5771V19.4221C8.15468 18.5415 8.14453 18.2658 8.14453 16.0001Z" fill="white" stroke="#B9BED2"/>
<path d="M12.7145 16C12.7145 17.8133 14.186 19.2845 16 19.2845C17.8143 19.2845 19.2845 17.8131 19.2845 16C19.2845 14.1861 17.8144 12.7145 16 12.7145C14.1859 12.7145 12.7145 14.1859 12.7145 16ZM12.209 16C12.209 13.9061 13.9061 12.209 16 12.209C18.0938 12.209 19.7901 13.906 19.7901 16C19.7901 18.093 18.0938 19.7901 16 19.7901C13.9061 19.7901 12.209 18.0928 12.209 16Z" fill="white" stroke="#B9BED2"/>
<path d="M20.9624 11.5398C20.9624 11.8173 20.7372 12.0424 20.4597 12.0424C20.1822 12.0424 19.957 11.8173 19.957 11.5398C19.957 11.2623 20.1822 11.0371 20.4597 11.0371C20.7372 11.0371 20.9624 11.2623 20.9624 11.5398Z" fill="white" stroke="#B9BED2"/>
</g>
<defs>
<clipPath id="clip0_1595_17544">
<rect width="32" height="32" fill="white"/>
</clipPath>
</defs>
</svg>
