<svg width="32" height="32" viewBox="0 0 32 32" fill="none" xmlns="http://www.w3.org/2000/svg">
<g clip-path="url(#clip0_1595_17553)">
<path fill-rule="evenodd" clip-rule="evenodd" d="M26.1585 31.2379H5.84108C3.03524 31.2379 0.761719 28.9644 0.761719 26.1585V5.84108C0.761719 3.03626 3.03524 0.761719 5.84108 0.761719H26.1585C28.9634 0.761719 31.2379 3.03626 31.2379 5.84108V26.1585C31.2379 28.9644 28.9634 31.2379 26.1585 31.2379Z" stroke="#B9BED2" stroke-width="2"/>
<path fill-rule="evenodd" clip-rule="evenodd" d="M9.12305 22.401H12.0792V12.8496H9.12305V22.401Z" fill="#B9BED2"/>
<path fill-rule="evenodd" clip-rule="evenodd" d="M10.5874 11.599C11.5532 11.599 12.3351 10.8095 12.3351 9.83612C12.3351 8.86279 11.5532 8.07422 10.5874 8.07422C9.62172 8.07422 8.83887 8.86279 8.83887 9.83612C8.83887 10.8095 9.62172 11.599 10.5874 11.599Z" fill="#B9BED2"/>
<path fill-rule="evenodd" clip-rule="evenodd" d="M16.8059 17.3872C16.8059 16.0443 17.424 15.2443 18.6078 15.2443C19.6945 15.2443 20.2173 16.0129 20.2173 17.3872V22.4015H23.1593V16.3538C23.1593 13.7957 21.7097 12.5586 19.684 12.5586C17.6583 12.5586 16.8059 14.1357 16.8059 14.1357V12.85H13.9697V22.4015H16.8059V17.3872Z" fill="#B9BED2"/>
</g>
<defs>
<clipPath id="clip0_1595_17553">
<rect width="32" height="32" fill="white"/>
</clipPath>
</defs>
</svg>
